<svg xmlns="http://www.w3.org/2000/svg" viewBox="0 0 1600 900" role="img" aria-label="Estadio de futebol com elementos de dados"><defs><linearGradient id="sky" x1="0" x2="1" y1="0" y2="1"><stop offset="0" stop-color="#07110d"/><stop offset=".5" stop-color="#16352c"/><stop offset="1" stop-color="#0a0f0d"/></linearGradient><radialGradient id="lights" cx="72%" cy="16%" r="55%"><stop offset="0" stop-color="#f5c451" stop-opacity=".86"/><stop offset=".38" stop-color="#78a6ff" stop-opacity=".22"/><stop offset="1" stop-color="#07110d" stop-opacity="0"/></radialGradient><linearGradient id="pitch" x1="0" x2="1"><stop offset="0" stop-color="#123f2f"/><stop offset=".5" stop-color="#1a6b47"/><stop offset="1" stop-color="#0f3328"/></linearGradient></defs><rect width="1600" height="900" fill="url(#sky)"/><rect width="1600" height="900" fill="url(#lights)"/><path d="M0 470 C230 385 470 350 800 350 C1130 350 1370 385 1600 470 L1600 705 C1325 610 1080 570 800 570 C520 570 275 610 0 705 Z" fill="#1f2926"/><path d="M0 520 C290 435 540 405 800 405 C1060 405 1310 435 1600 520" fill="none" stroke="#f5f7ef" stroke-opacity=".18" stroke-width="7"/><g opacity=".72"><circle cx="254" cy="386" r="4" fill="#f5f7ef"/><circle cx="316" cy="375" r="3" fill="#f5c451"/><circle cx="390" cy="365" r="4" fill="#f5f7ef"/><circle cx="1030" cy="365" r="3" fill="#f5c451"/><circle cx="1110" cy="374" r="4" fill="#f5f7ef"/><circle cx="1215" cy="392" r="3" fill="#78a6ff"/><circle cx="1328" cy="422" r="4" fill="#f5f7ef"/></g><path d="M165 785 C460 660 1125 660 1435 785 L1600 900 L0 900 Z" fill="url(#pitch)"/><path d="M470 750 C620 695 975 695 1130 750" fill="none" stroke="#f5f7ef" stroke-opacity=".56" stroke-width="5"/><ellipse cx="800" cy="777" rx="135" ry="32" fill="none" stroke="#f5f7ef" stroke-opacity=".38" stroke-width="4"/><path d="M800 660 L800 900" stroke="#f5f7ef" stroke-opacity=".28" stroke-width="3"/><g opacity=".68" fill="none" stroke-linecap="round"><path d="M1000 205 H1260" stroke="#34d399" stroke-width="4"/><path d="M1000 240 H1180" stroke="#78a6ff" stroke-width="4"/><path d="M1000 275 H1320" stroke="#f5c451" stroke-width="4"/><path d="M1045 315 V205" stroke="#f5f7ef" stroke-opacity=".22"/><path d="M1135 315 V205" stroke="#f5f7ef" stroke-opacity=".22"/><path d="M1225 315 V205" stroke="#f5f7ef" stroke-opacity=".22"/></g><g opacity=".45" fill="none" stroke="#f5f7ef" stroke-width="2"><path d="M1090 185 C1160 125 1255 130 1330 190"/><path d="M1105 185 C1165 152 1252 155 1315 190"/></g><rect width="1600" height="900" fill="#000" opacity=".08"/></svg>
